<svg xmlns="http://www.w3.org/2000/svg" width="100" height="100" viewBox="0 0 24 24">
  <!-- Rounded background with padding -->
  <rect x="1" y="1" width="22" height="22" rx="4" ry="4" fill="#7f22fe"/>
  
  <!-- Zap icon scaled down slightly for padding -->
  <g transform="translate(1.5, 1.5) scale(0.85)">
    <path d="M4 14a1 1 0 0 1-.78-1.63l9.9-10.2a.5.5 0 0 1 .86.46l-1.92 6.02A1 1 0 0 0 13 10h7a1 1 0 0 1 .78 1.63l-9.9 10.2a.5.5 0 0 1-.86-.46l1.92-6.02A1 1 0 0 0 11 14z" 
          fill="none" 
          stroke="white" 
          stroke-width="2" 
          stroke-linecap="round" 
          stroke-linejoin="round"/>
  </g>
</svg>
